<svg width="64" height="64" viewBox="0 0 64 64" fill="none" xmlns="http://www.w3.org/2000/svg">
<path fill-rule="evenodd" clip-rule="evenodd" d="M64 32C64 49.6731 49.6731 64 32 64C14.3269 64 0 49.6731 0 32C0 14.3269 14.3269 0 32 0C49.6731 0 64 14.3269 64 32ZM32 16.634L32.3467 16.8317L45.3467 24.2441L45.7 24.4455V24.8522V39.1475V39.5541L45.3467 39.7556L32.3467 47.1679L32 47.3656L31.6533 47.1679L18.6533 39.7556L18.3 39.5541V39.1475V24.8522V24.4455L18.6533 24.2441L31.6533 16.8317L32 16.634ZM32.7 45.3549L44.3 38.7408V26.0359L32.7 32.4138V45.3549ZM32 31.201L43.5673 24.8411L32 18.2456L20.4327 24.8411L32 31.201Z" fill="#FAF5E9"/>
</svg>
