<svg width="32" height="32" viewBox="0 0 32 32" fill="none" xmlns="http://www.w3.org/2000/svg">
<path d="M3.456 23H5.64L7.176 18.008H13.128L14.664 23H16.944L11.568 6.2H8.808L3.456 23ZM7.728 16.184L9.552 10.208C9.768 9.488 9.96 8.888 10.152 8.192C10.344 8.888 10.536 9.488 10.752 10.208L12.576 16.184H7.728ZM21.7026 23.36C23.4546 23.36 24.9186 22.64 25.4706 21.44V22.424V23H27.4386V15.32C27.4386 12.68 25.9266 11.048 22.8066 11.048C19.9026 11.048 18.0546 12.944 17.9826 15.056H20.0466C20.0946 13.616 21.0546 12.68 22.9266 12.68C24.4386 12.68 25.4226 13.4 25.4226 14.648C25.4226 15.32 25.1346 15.752 24.2226 15.872L21.5586 16.256C19.4226 16.568 17.6226 17.552 17.6226 19.832C17.6226 22.016 19.3506 23.36 21.7026 23.36ZM19.7586 19.832C19.7586 18.56 20.8626 18.008 22.3266 17.744L24.0066 17.432C24.7986 17.288 25.2786 17.144 25.4226 16.928V18.632C25.4226 20.504 23.9346 21.752 21.9666 21.752C20.6946 21.752 19.7586 21.032 19.7586 19.832Z" fill="#FAF5E9"/>
</svg>
