<svg width="32" height="32" viewBox="0 0 32 32" fill="none" xmlns="http://www.w3.org/2000/svg">
<path fill-rule="evenodd" clip-rule="evenodd" d="M32 16C32 24.8366 24.8366 32 16 32C7.16344 32 0 24.8366 0 16C0 7.16344 7.16344 0 16 0C24.8366 0 32 7.16344 32 16ZM20 16C20 18.2091 18.2091 20 16 20C13.7909 20 12 18.2091 12 16C12 13.7909 13.7909 12 16 12C18.2091 12 20 13.7909 20 16ZM10 8.4H22C22.8837 8.4 23.6 9.11634 23.6 10V22C23.6 22.8837 22.8837 23.6 22 23.6H10C9.11634 23.6 8.4 22.8837 8.4 22V10C8.4 9.11634 9.11634 8.4 10 8.4ZM7 10C7 8.34315 8.34315 7 10 7H22C23.6569 7 25 8.34315 25 10V22C25 23.6569 23.6569 25 22 25H10C8.34315 25 7 23.6569 7 22V10Z" fill="#FAF5E9"/>
</svg>
