<svg width="24" height="24" viewBox="0 0 24 24" fill="none" xmlns="http://www.w3.org/2000/svg">
<path fill-rule="evenodd" clip-rule="evenodd" d="M23 12C23 18.0751 18.0751 23 12 23C5.92487 23 1 18.0751 1 12C1 5.92487 5.92487 1 12 1C18.0751 1 23 5.92487 23 12ZM10.75 10C10.75 11.5188 9.51878 12.75 8 12.75C6.48122 12.75 5.25 11.5188 5.25 10C5.25 8.48122 6.48122 7.25 8 7.25C9.51878 7.25 10.75 8.48122 10.75 10ZM16 12.75C17.5188 12.75 18.75 11.5188 18.75 10C18.75 8.48122 17.5188 7.25 16 7.25C14.4812 7.25 13.25 8.48122 13.25 10C13.25 11.5188 14.4812 12.75 16 12.75Z" fill="white"/>
</svg>
