<svg width="24" height="24" viewBox="0 0 24 24" fill="none" xmlns="http://www.w3.org/2000/svg">
<path d="M16 21C16 17.6863 12.6421 15 8.5 15C4.35786 15 1 17.6863 1 21" stroke="#FAF5E9" stroke-width="1.4"/>
<path d="M23 21C23 17.6863 19.6421 15 15.5 15C14.1502 15 12.8837 15.2852 11.7896 15.7845" stroke="#FAF5E9" stroke-width="1.4"/>
<path d="M13 7.5C13 9.98528 10.9853 12 8.5 12C6.01472 12 4 9.98528 4 7.5C4 5.01472 6.01472 3 8.5 3C10.9853 3 13 5.01472 13 7.5Z" fill="#FAF5E9"/>
<path fill-rule="evenodd" clip-rule="evenodd" d="M13.571 11.5667C14.4651 10.4533 15 9.03911 15 7.5C15 5.96089 14.4651 4.54672 13.571 3.43327C14.1556 3.15545 14.8096 3 15.5 3C17.9853 3 20 5.01472 20 7.5C20 9.98528 17.9853 12 15.5 12C14.8096 12 14.1556 11.8445 13.571 11.5667Z" fill="#FAF5E9"/>
</svg>
