<svg width="24" height="24" viewBox="0 0 24 24" fill="none" xmlns="http://www.w3.org/2000/svg">
<path d="M1.38781 18H3.20781L4.48781 13.84H9.44781L10.7278 18H12.6278L8.14781 4H5.84781L1.38781 18ZM4.94781 12.32L6.46781 7.34C6.64781 6.74 6.80781 6.24 6.96781 5.66C7.12781 6.24 7.28781 6.74 7.46781 7.34L8.98781 12.32H4.94781ZM17.26 18.3C18.72 18.3 19.94 17.7 20.4 16.7V17.52V18H22.04V11.6C22.04 9.4 20.78 8.04 18.18 8.04C15.76 8.04 14.22 9.62 14.16 11.38H15.88C15.92 10.18 16.72 9.4 18.28 9.4C19.54 9.4 20.36 10 20.36 11.04C20.36 11.6 20.12 11.96 19.36 12.06L17.14 12.38C15.36 12.64 13.86 13.46 13.86 15.36C13.86 17.18 15.3 18.3 17.26 18.3ZM15.64 15.36C15.64 14.3 16.56 13.84 17.78 13.62L19.18 13.36C19.84 13.24 20.24 13.12 20.36 12.94V14.36C20.36 15.92 19.12 16.96 17.48 16.96C16.42 16.96 15.64 16.36 15.64 15.36Z" fill="#FAF5E9"/>
</svg>
