<svg width="32" height="32" viewBox="0 0 32 32" fill="none" xmlns="http://www.w3.org/2000/svg">
<circle cx="16" cy="16" r="16" fill="black"/>
<path fill-rule="evenodd" clip-rule="evenodd" d="M32 16C32 24.8366 24.8366 32 16 32C7.16344 32 0 24.8366 0 16C0 7.16344 7.16344 0 16 0C24.8366 0 32 7.16344 32 16ZM8.85077 14.9253L9.40103 15.358L12.3656 17.689L11.5002 18.7896L9.92739 17.5528C10.7161 20.6159 13.6693 22.6979 16.8962 22.3119C19.292 22.0254 21.2214 20.4524 22.074 18.3636L23.3702 18.8927C22.3331 21.4334 19.9835 23.3526 17.0625 23.702C13.035 24.1838 9.3574 21.5101 8.50628 17.6283L7.18755 19.3054L6.08703 18.4401L8.41809 15.4756L8.85077 14.9253ZM9.92602 13.6364C10.7786 11.5476 12.7081 9.97464 15.1038 9.68806C18.3307 9.30206 21.2839 11.3841 22.0726 14.4472L20.4998 13.2104L19.6345 14.311L22.599 16.642L23.1493 17.0747L23.5819 16.5244L25.913 13.5599L24.8125 12.6946L23.4937 14.3717C22.6426 10.4899 18.965 7.8162 14.9376 8.29797C12.0166 8.64738 9.66691 10.5666 8.62984 13.1073L9.92602 13.6364Z" fill="#FAF5E9"/>
</svg>
