<svg width="48" height="48" viewBox="0 0 48 48" fill="none" xmlns="http://www.w3.org/2000/svg">
<path d="M2.62004 13.44C2.62004 9.05491 6.1749 5.50005 10.56 5.50005H35.52C39.9052 5.50005 43.46 9.05491 43.46 13.44C43.46 17.8252 39.9052 21.38 35.52 21.38H10.56C6.17491 21.38 2.62004 17.8252 2.62004 13.44Z" stroke="#FAF5E9" stroke-width="1.4"/>
<path d="M4.53997 34.5599C4.53997 30.1748 8.09482 26.6199 12.48 26.6199H37.44C41.8251 26.6199 45.38 30.1748 45.38 34.5599C45.38 38.9451 41.8251 42.4999 37.44 42.4999H12.48C8.09483 42.4999 4.53997 38.9451 4.53997 34.5599Z" stroke="#FAF5E9" stroke-width="1.4"/>
<rect x="28.8" y="25.9199" width="17.28" height="17.28" rx="8.64" fill="#FAF5E9"/>
<rect x="1.92004" y="4.80005" width="17.28" height="17.28" rx="8.64" fill="#FAF5E9"/>
</svg>
