<svg width="32" height="32" viewBox="0 0 32 32" fill="none" xmlns="http://www.w3.org/2000/svg">
<path fill-rule="evenodd" clip-rule="evenodd" d="M32 16C32 24.8366 24.8366 32 16 32C7.16344 32 0 24.8366 0 16C0 7.16344 7.16344 0 16 0C24.8366 0 32 7.16344 32 16ZM13.7143 12.1904C13.7143 14.2943 12.0087 15.9999 9.90476 15.9999C7.80081 15.9999 6.09523 14.2943 6.09523 12.1904C6.09523 10.0864 7.80081 8.38086 9.90476 8.38086C12.0087 8.38086 13.7143 10.0864 13.7143 12.1904ZM22.0952 15.9999C24.1992 15.9999 25.9048 14.2943 25.9048 12.1904C25.9048 10.0864 24.1992 8.38086 22.0952 8.38086C19.9913 8.38086 18.2857 10.0864 18.2857 12.1904C18.2857 14.2943 19.9913 15.9999 22.0952 15.9999Z" fill="#FAF5E9"/>
</svg>
