<svg width="32" height="32" viewBox="0 0 32 32" fill="none" xmlns="http://www.w3.org/2000/svg">
<path fill-rule="evenodd" clip-rule="evenodd" d="M16 32C24.8366 32 32 24.8366 32 16C32 7.16344 24.8366 0 16 0C7.16344 0 0 7.16344 0 16C0 24.8366 7.16344 32 16 32ZM11 14C9.89543 14 9 14.8954 9 16C9 17.1046 9.89543 18 11 18C12.1046 18 13 17.1046 13 16C13 14.8954 12.1046 14 11 14ZM14 16C14 14.8954 14.8954 14 16 14C17.1046 14 18 14.8954 18 16C18 17.1046 17.1046 18 16 18C14.8954 18 14 17.1046 14 16ZM21 14C19.8954 14 19 14.8954 19 16C19 17.1046 19.8954 18 21 18C22.1046 18 23 17.1046 23 16C23 14.8954 22.1046 14 21 14Z" fill="#FAF5E9"/>
</svg>
