<svg width="48" height="48" viewBox="0 0 48 48" fill="none" xmlns="http://www.w3.org/2000/svg">
<path fill-rule="evenodd" clip-rule="evenodd" d="M45 24C45 35.598 35.598 45 24 45C12.402 45 3 35.598 3 24C3 12.402 12.402 3 24 3C35.598 3 45 12.402 45 24ZM21 19C21 21.7614 18.7614 24 16 24C13.2386 24 11 21.7614 11 19C11 16.2386 13.2386 14 16 14C18.7614 14 21 16.2386 21 19ZM32 24C34.7614 24 37 21.7614 37 19C37 16.2386 34.7614 14 32 14C29.2386 14 27 16.2386 27 19C27 21.7614 29.2386 24 32 24Z" fill="#FAF5E9"/>
</svg>
