<svg width="32" height="32" viewBox="0 0 32 32" fill="none" xmlns="http://www.w3.org/2000/svg">
<g clip-path="url(#clip0_11285_193593)">
<path d="M22.3 16C22.3 20.3451 21.5281 24.2453 20.3084 27.0331C19.6982 28.4281 18.9895 29.513 18.2382 30.2394C17.4902 30.9625 16.7349 31.3 16 31.3C15.2651 31.3 14.5098 30.9625 13.7618 30.2394C13.0105 29.513 12.3018 28.4281 11.6916 27.0331C10.4719 24.2453 9.7 20.3451 9.7 16C9.7 11.6549 10.4719 7.75466 11.6916 4.96686C12.3018 3.57193 13.0105 2.48702 13.7618 1.76062C14.5098 1.03748 15.2651 0.7 16 0.7C16.7349 0.7 17.4902 1.03748 18.2382 1.76062C18.9895 2.48702 19.6982 3.57193 20.3084 4.96686C21.5281 7.75466 22.3 11.6549 22.3 16Z" stroke="#FAF5E9" stroke-width="1.4"/>
<path d="M32 16H0" stroke="#FAF5E9" stroke-width="1.4"/>
</g>
<rect x="0.7" y="0.7" width="30.6" height="30.6" rx="15.3" stroke="#FAF5E9" stroke-width="1.4"/>
<defs>
<clipPath id="clip0_11285_193593">
<rect width="32" height="32" rx="16" fill="white"/>
</clipPath>
</defs>
</svg>
