<svg width="32" height="32" viewBox="0 0 32 32" fill="none" xmlns="http://www.w3.org/2000/svg">
<path fill-rule="evenodd" clip-rule="evenodd" d="M12.5018 30.9998H19.4924C21.4327 30.9998 23.0932 29.6072 23.4313 27.6966L27.0667 7.14649C27.1074 6.91633 27.1299 6.68436 27.0915 6.45381C26.883 5.2034 25.4815 0.999756 16.0612 0.999756C6.74947 0.999756 5.18189 5.10702 4.91889 6.40939C4.86677 6.66749 4.8892 6.93118 4.93507 7.19046L8.56295 27.6966C8.90097 29.6072 10.5615 30.9998 12.5018 30.9998ZM16.0531 9.69031C7.17624 9.69031 7.27363 6.80415 7.27363 6.80415C7.27363 6.80415 7.37513 3.42371 16.0531 3.42371C24.731 3.42371 24.732 6.80415 24.732 6.80415C24.732 6.80415 24.9299 9.69031 16.0531 9.69031Z" fill="#FAF5E9"/>
</svg>
