<svg width="32" height="32" viewBox="0 0 32 32" fill="none" xmlns="http://www.w3.org/2000/svg">
<g clip-path="url(#clip0_10399_57567)">
<path fill-rule="evenodd" clip-rule="evenodd" d="M13.7099 12.72C13.3248 12.9894 12.9894 13.3248 12.72 13.7099L4.19132 5.18126L5.18127 4.19131L13.7099 12.72ZM15.3 12.061C15.5273 12.0209 15.7612 12 16 12C16.2388 12 16.4727 12.0209 16.7 12.061V0H15.3V12.061ZM18.2901 12.72C18.6752 12.9894 19.0106 13.3248 19.28 13.7099L27.8087 5.18127L26.8187 4.19132L18.2901 12.72ZM19.939 15.3C19.9791 15.5273 20 15.7612 20 16C20 16.2388 19.9791 16.4727 19.939 16.7H32V15.3L19.939 15.3ZM19.28 18.2901C19.0106 18.6752 18.6752 19.0106 18.2901 19.28L26.8187 27.8087L27.8087 26.8187L19.28 18.2901ZM16.7 19.939C16.4727 19.9791 16.2388 20 16 20C15.7612 20 15.5273 19.9791 15.3 19.939V32H16.7V19.939ZM13.7099 19.28C13.3248 19.0106 12.9894 18.6752 12.72 18.2901L4.19132 26.8187L5.18127 27.8087L13.7099 19.28ZM12.061 16.7C12.0209 16.4727 12 16.2388 12 16C12 15.7612 12.0209 15.5273 12.061 15.3L0 15.3V16.7H12.061Z" fill="#FAF5E9"/>
</g>
<defs>
<clipPath id="clip0_10399_57567">
<rect width="32" height="32" fill="white"/>
</clipPath>
</defs>
</svg>
