<svg width="24" height="24" viewBox="0 0 24 24" fill="none" xmlns="http://www.w3.org/2000/svg">
<g clip-path="url(#clip0_11287_97801)">
<path fill-rule="evenodd" clip-rule="evenodd" d="M10.4319 9.44195C10.0292 9.68935 9.68935 10.0292 9.44195 10.4319L3.01974 4.00969L4.00969 3.01974L10.4319 9.44195ZM11.3 9.0821C11.5246 9.02843 11.759 9 12 9C12.241 9 12.4754 9.02842 12.7 9.0821V0H11.3V9.0821ZM13.5681 9.44195C13.9708 9.68935 14.3107 10.0292 14.558 10.4319L20.9803 4.00969L19.9903 3.01974L13.5681 9.44195ZM14.9179 11.3C14.9716 11.5246 15 11.759 15 12C15 12.241 14.9716 12.4754 14.9179 12.7H24V11.3H14.9179ZM14.558 13.5681C14.3107 13.9708 13.9708 14.3107 13.5681 14.558L19.9903 20.9803L20.9803 19.9903L14.558 13.5681ZM12.7 14.9179C12.4754 14.9716 12.241 15 12 15C11.759 15 11.5246 14.9716 11.3 14.9179V24H12.7V14.9179ZM10.4319 14.558C10.0292 14.3107 9.68935 13.9708 9.44195 13.5681L3.01974 19.9903L4.00969 20.9803L10.4319 14.558ZM9.0821 12.7C9.02842 12.4754 9 12.241 9 12C9 11.759 9.02842 11.5246 9.0821 11.3H0V12.7H9.0821Z" fill="#FAF5E9"/>
</g>
<defs>
<clipPath id="clip0_11287_97801">
<rect width="24" height="24" fill="white"/>
</clipPath>
</defs>
</svg>
