<svg width="24" height="24" viewBox="0 0 24 24" fill="none" xmlns="http://www.w3.org/2000/svg">
<g clip-path="url(#clip0_10965_84437)">
<path fill-rule="evenodd" clip-rule="evenodd" d="M12.342 0.389295C12.1295 0.2703 11.8705 0.2703 11.658 0.389295L11.6579 0.389321C11.3206 0.578214 11.2003 1.00479 11.3892 1.3421C11.5175 1.57113 11.7553 1.70012 12.0004 1.7002C12.2452 1.69986 12.4827 1.5709 12.6108 1.3421C12.7997 1.00479 12.6794 0.578215 12.3421 0.389321L12.342 0.389295ZM9.00874 3.47744C9.34605 3.28855 9.46637 2.86198 9.27747 2.52467C9.08858 2.18736 8.66201 2.06704 8.3247 2.25593L8.3246 2.25599C7.98729 2.44488 7.86697 2.87145 8.05587 3.20876C8.24476 3.54607 8.67134 3.66639 9.00865 3.4775L9.00874 3.47744ZM15.6753 2.25593C15.338 2.06704 14.9114 2.18736 14.7225 2.52467C14.5336 2.86198 14.654 3.28855 14.9913 3.47744L14.9914 3.4775C15.3287 3.66639 15.7552 3.54607 15.9441 3.20876C16.133 2.87145 16.0127 2.44488 15.6754 2.25599L15.6753 2.25593ZM5.67541 5.34411C6.01272 5.15522 6.13303 4.72864 5.94414 4.39133C5.75524 4.05402 5.32867 3.93371 4.99136 4.1226L4.99127 4.12265C4.65396 4.31155 4.53364 4.73812 4.72253 5.07543C4.91143 5.41274 5.338 5.53306 5.67531 5.34416L5.67541 5.34411ZM19.0086 4.1226C18.6713 3.93371 18.2448 4.05402 18.0559 4.39133C17.867 4.72864 17.9873 5.15522 18.3246 5.34411L18.3247 5.34416C18.662 5.53306 19.0886 5.41274 19.2775 5.07543C19.4664 4.73812 19.3461 4.31155 19.0087 4.12265L19.0086 4.1226ZM1.65803 5.98927C1.94792 5.82693 2.30373 5.89297 2.51795 6.12886C2.5648 6.18034 2.60318 6.23807 2.63243 6.2998C2.67759 6.39468 2.69952 6.49533 2.70016 6.59489C2.70072 6.66224 2.69155 6.73023 2.672 6.79675C2.65584 6.85207 2.63303 6.90456 2.6045 6.95328C2.58156 6.99263 2.55465 7.02993 2.52398 7.06453C2.47533 7.1195 2.41904 7.16557 2.35765 7.20196C2.27133 7.25337 2.17301 7.28673 2.06789 7.29685C1.99643 7.30387 1.92348 7.29996 1.85164 7.28435C1.5363 7.21629 1.3 6.93579 1.3 6.6001V6.60005C1.3 6.34668 1.43692 6.11309 1.65798 5.98929L1.65803 5.98927ZM22.342 5.98927C22.0526 5.82723 21.6976 5.89273 21.4832 6.12758C21.4358 6.17938 21.3971 6.23756 21.3676 6.2998C21.3225 6.3945 21.3006 6.49494 21.2999 6.59432C21.2992 6.66115 21.3082 6.72862 21.3274 6.79466C21.3437 6.85097 21.3668 6.90437 21.3959 6.95388C21.4187 6.99301 21.4455 7.03011 21.476 7.06453C21.5246 7.11945 21.5809 7.16548 21.6422 7.20186C21.7926 7.29109 21.9737 7.3223 22.1483 7.28436C22.4637 7.21634 22.7 6.93582 22.7 6.6001V6.60005C22.7 6.34668 22.5631 6.11309 22.342 5.98929L22.342 5.98927ZM18.9993 9.01596C19.3395 8.83226 19.4663 8.40759 19.2827 8.06742C19.099 7.72725 18.6743 7.6004 18.3341 7.78409L18.334 7.78414C17.9938 7.96783 17.867 8.39251 18.0507 8.73268C18.2344 9.07285 18.6591 9.1997 18.9992 9.01601L18.9993 9.01596ZM4.84121 7.90191C4.79312 7.94945 4.75116 8.00483 4.71736 8.06742C4.53366 8.40759 4.66051 8.83226 5.00068 9.01596L5.00078 9.01601C5.28098 9.16731 5.61851 9.10793 5.83147 8.89218L4.84121 7.90191ZM11.9115 14.9722C11.5667 15.0157 11.3 15.31 11.3 15.6667V15.6668C11.3 16.0534 11.6134 16.3668 12 16.3668C12.3567 16.3668 12.651 16.1 12.6945 15.7552L11.9115 14.9722ZM18.962 19.9014C18.9777 19.8941 18.9933 19.8861 19.0086 19.8775L19.0087 19.8774C19.3461 19.6885 19.4664 19.262 19.2775 18.9247C19.0886 18.5874 18.662 18.467 18.3247 18.6559L18.3246 18.656C18.1912 18.7307 18.0918 18.8425 18.032 18.9713L18.962 19.9014ZM11.4193 12.3587H12.1937L12.3326 12.616L12.3327 12.616C12.448 12.5537 12.5388 12.4637 12.6013 12.3587C12.6485 12.2798 12.6806 12.1907 12.6935 12.0956C12.7133 11.9533 12.6895 11.8036 12.616 11.6674C12.4441 11.3491 12.0611 11.2176 11.7339 11.3525C11.5895 11.4118 11.464 11.5194 11.384 11.6674C11.3106 11.8035 11.2868 11.953 11.3064 12.0953C11.3169 12.1726 11.3401 12.2459 11.3737 12.3131L11.4193 12.3587ZM9.35985 10.2992C9.40016 10.0172 9.26462 9.7274 8.99932 9.58414L8.99923 9.58409C8.86199 9.50998 8.711 9.48642 8.56763 9.50701L9.35985 10.2992ZM12.6935 12.0956C12.6978 12.0644 12.7 12.0325 12.7 12.0001V12H12.0001H12L12 12.0001L12.1937 12.3587H12.6013C12.6494 12.278 12.6807 12.1883 12.6935 12.0956ZM15.666 10.816C16.0062 10.6323 16.133 10.2076 15.9493 9.86742C15.7656 9.52725 15.341 9.4004 15.0008 9.58409L15.0007 9.58414C14.6605 9.76783 14.5337 10.1925 14.7174 10.5327C14.901 10.8728 15.3257 10.9997 15.6659 10.816L15.666 10.816ZM2.7 10.2C2.7 9.8134 2.3866 9.5 2 9.5C1.6134 9.5 1.3 9.8134 1.3 10.2V10.2001C1.3 10.5867 1.6134 10.9001 2 10.9001C2.3866 10.9001 2.7 10.5867 2.7 10.2001V10.2ZM22.7 10.2C22.7 9.8134 22.3866 9.5 22 9.5C21.6134 9.5 21.3 9.8134 21.3 10.2V10.2001C21.3 10.5867 21.6134 10.9001 22 10.9001C22.3866 10.9001 22.7 10.5867 22.7 10.2001V10.2ZM2.7 13.8C2.7 13.4134 2.3866 13.1 2 13.1C1.6134 13.1 1.3 13.4134 1.3 13.8V13.8001C1.3 14.1867 1.6134 14.5001 2 14.5001C2.3866 14.5001 2.7 14.1867 2.7 13.8001V13.8ZM22.7 13.8C22.7 13.4134 22.3866 13.1 22 13.1C21.6134 13.1 21.3 13.4134 21.3 13.8V13.8001C21.3 14.1867 21.6134 14.5001 22 14.5001C22.3866 14.5001 22.7 14.1867 22.7 13.8001V13.8ZM2 16.7C2.25779 16.7 2.48304 16.8393 2.60451 17.0468C2.65061 17.1256 2.68176 17.2141 2.69408 17.3086C2.71327 17.4532 2.68757 17.605 2.6108 17.7421C2.42191 18.0794 1.99534 18.1997 1.65803 18.0108L1.65798 18.0108C1.43692 17.887 1.3 17.6534 1.3 17.4V17.4C1.3 17.0134 1.6134 16.7 2 16.7ZM22.7 17.4C22.7 17.0134 22.3866 16.7 22 16.7C21.8433 16.7 21.6987 16.7515 21.582 16.8384C21.5048 16.8957 21.4422 16.9668 21.3958 17.0463C21.3493 17.1255 21.318 17.2146 21.3058 17.3098C21.2869 17.454 21.3127 17.6054 21.3892 17.7421C21.5781 18.0794 22.0047 18.1997 22.342 18.0108L22.342 18.0108C22.5631 17.887 22.7 17.6534 22.7 17.4V17.4ZM5.67531 18.6559C5.338 18.467 4.91143 18.5874 4.72253 18.9247C4.53364 19.262 4.65396 19.6885 4.99127 19.8774L4.99136 19.8775C5.32867 20.0664 5.75524 19.9461 5.94414 19.6088C6.13303 19.2715 6.01272 18.8449 5.67541 18.656L5.67531 18.6559ZM12.7 19.3333C12.7 18.9467 12.3866 18.6333 12 18.6333C11.6134 18.6333 11.3 18.9467 11.3 19.3333V19.3334C11.3 19.72 11.6134 20.0334 12 20.0334C12.3866 20.0334 12.7 19.72 12.7 19.3334V19.3333ZM9.00865 20.5226C8.67134 20.3337 8.24476 20.454 8.05587 20.7913C7.86697 21.1286 7.98729 21.5552 8.3246 21.7441L8.3247 21.7442C8.66201 21.9331 9.08858 21.8127 9.27747 21.4754C9.46637 21.1381 9.34605 20.7115 9.00874 20.5227L9.00865 20.5226ZM15.6754 21.7441C16.0127 21.5552 16.133 21.1286 15.9441 20.7913C15.7552 20.454 15.3287 20.3337 14.9914 20.5226L14.9913 20.5227C14.654 20.7115 14.5336 21.1381 14.7225 21.4754C14.9114 21.8127 15.338 21.9331 15.6753 21.7442L15.6754 21.7441ZM12.1515 22.3164C12.1015 22.3053 12.0508 22.2999 12.0005 22.2999C11.9498 22.2998 11.8989 22.3052 11.8485 22.3164C11.7763 22.3324 11.7083 22.3594 11.6464 22.3958C11.5591 22.4467 11.4819 22.5172 11.422 22.6051C11.3819 22.6637 11.3504 22.7287 11.3295 22.7982C11.2366 23.1058 11.366 23.4473 11.6579 23.6108L11.658 23.6108C11.8705 23.7298 12.1295 23.7298 12.342 23.6108L12.3421 23.6108C12.6353 23.4466 12.7646 23.1027 12.6692 22.7941C12.6485 22.7267 12.6179 22.6637 12.5792 22.6067C12.519 22.5179 12.4412 22.4468 12.3532 22.3955C12.2914 22.3593 12.2235 22.3323 12.1515 22.3164Z" fill="#FAF5E9"/>
<path d="M1 1L23 23" stroke="#FF3030" stroke-width="1.4"/>
</g>
<defs>
<clipPath id="clip0_10965_84437">
<rect width="24" height="24" fill="white"/>
</clipPath>
</defs>
</svg>
