<svg width="48" height="48" viewBox="0 0 48 48" fill="none" xmlns="http://www.w3.org/2000/svg">
<path fill-rule="evenodd" clip-rule="evenodd" d="M48 24C48 37.2548 37.2548 48 24 48C10.7452 48 0 37.2548 0 24C0 10.7452 10.7452 0 24 0C37.2548 0 48 10.7452 48 24ZM38 24C38 24.2867 37.9914 24.5715 37.9744 24.8539C37.5331 32.1883 31.4453 38 24 38C23.2049 38 22.4253 37.9337 21.6664 37.8064C21.385 37.7592 21.1065 37.7036 20.8311 37.6399C14.9373 36.276 10.4687 31.1905 10.0346 24.9925C10.0117 24.6646 10 24.3337 10 24C10 17.1717 14.8884 11.4852 21.3565 10.2492C21.9309 10.1314 22.5182 10.0476 23.1163 10C23.1075 10.0097 23.0987 10.0194 23.09 10.0291C23.3909 10.0098 23.6943 10 24 10C31.732 10 38 16.268 38 24ZM22.5963 11.4772C22.7129 11.4643 22.8299 11.453 22.9474 11.4433C23.2942 11.4146 23.6452 11.4 24 11.4C30.9588 11.4 36.6 17.0412 36.6 24L36.5999 24.0349C36.5365 24.0698 36.47 24.1058 36.4006 24.1427C35.5964 24.5707 34.3959 25.1285 32.8306 25.633C29.8026 26.6091 25.405 27.3875 19.8608 26.6375C19.4832 20.9736 19.733 15.5116 22.5963 11.4772ZM11.5414 25.894C12.2653 30.6946 15.698 34.6089 20.2329 36.0276C20.1381 35.7451 20.0391 35.4361 19.9383 35.1022C19.4015 33.3241 18.8132 30.8334 18.5489 27.856C15.0826 27.2906 12.8998 26.547 11.5414 25.894ZM19.9745 28.0643C20.2417 30.7825 20.7839 33.0591 21.2785 34.6976C21.488 35.3915 21.6887 35.9701 21.8559 36.4185L21.8981 36.4257C22.5807 36.5402 23.2828 36.6 24 36.6C30.393 36.6 35.6739 31.8389 36.4904 25.669C35.6657 26.0746 34.5834 26.539 33.2601 26.9655C30.1139 27.9797 25.6095 28.778 19.9745 28.0643Z" fill="#FAF5E9"/>
</svg>
