<svg width="48" height="48" viewBox="0 0 48 48" fill="none" xmlns="http://www.w3.org/2000/svg">
<path fill-rule="evenodd" clip-rule="evenodd" d="M48 24C48 37.2548 37.2548 48 24 48C10.7452 48 0 37.2548 0 24C0 10.7452 10.7452 0 24 0C37.2548 0 48 10.7452 48 24ZM24 9.19421L24.3467 9.3919L36.8467 16.5192L37.2 16.7206V17.1273V30.8727V31.2794L36.8467 31.4808L24.3467 38.6081L24 38.8058L23.6533 38.6081L11.1533 31.4808L10.8 31.2794V30.8727V17.1273V16.7206L11.1533 16.5192L23.6533 9.3919L24 9.19421ZM24.7 36.7951L35.8 30.4661V18.311L24.7 24.414V36.7951ZM24 23.2012L35.0673 17.1162L24 10.8058L12.9327 17.1162L24 23.2012Z" fill="#FAF5E9"/>
</svg>
