<svg width="124" height="69" viewBox="0 0 124 69" fill="none" xmlns="http://www.w3.org/2000/svg">
<path d="M19.062 69H40.458V67.62H40.069C38.0267 67.62 34.8173 65.9443 30.7325 63.7757L6.41883 51.06C2.33412 48.8914 1.36157 46.0329 1.36157 39.7243V15.9686L27.4259 29.5714H56.6024V63.9729C54.0737 67.0286 52.8094 67.62 50.8643 67.62H50.4753V69H73.5247V67.62H73.1357C71.1906 67.62 69.9263 67.0286 67.3004 63.8743V29.5714H96.5741L122.638 15.9686V39.7243C122.638 46.0329 121.666 48.8914 117.581 51.06L93.2675 63.7757C89.1828 65.9443 85.9733 67.62 83.931 67.62H83.542V69H104.938L124 59.0443V0H122.638V0.690003C122.638 3.35143 121.082 5.52 117.581 7.29429L85.4871 24.0514C79.5545 27.2057 77.5122 28.1914 73.622 28.1914H50.378C46.4878 28.1914 44.4455 27.2057 38.5129 24.0514L6.41883 7.29429C2.91765 5.52 1.36157 3.35143 1.36157 0.690003V0H0V59.0443L19.062 69Z" fill="#FAF5E9"/>
</svg>
