<svg width="32" height="32" viewBox="0 0 32 32" fill="none" xmlns="http://www.w3.org/2000/svg">
<mask id="path-1-inside-1_11552_74697" fill="white">
<path fill-rule="evenodd" clip-rule="evenodd" d="M28.6 16C28.6 22.9588 22.9588 28.6 16 28.6C9.04121 28.6 3.4 22.9588 3.4 16C3.4 9.04121 9.04121 3.4 16 3.4C22.9588 3.4 28.6 9.04121 28.6 16ZM30 16C30 23.732 23.732 30 16 30C8.26801 30 2 23.732 2 16C2 8.26801 8.26801 2 16 2C23.732 2 30 8.26801 30 16ZM16 24C20.4183 24 24 20.4183 24 16C24 11.5817 20.4183 8 16 8C11.5817 8 8 11.5817 8 16C8 20.4183 11.5817 24 16 24Z"/>
</mask>
<path fill-rule="evenodd" clip-rule="evenodd" d="M28.6 16C28.6 22.9588 22.9588 28.6 16 28.6C9.04121 28.6 3.4 22.9588 3.4 16C3.4 9.04121 9.04121 3.4 16 3.4C22.9588 3.4 28.6 9.04121 28.6 16ZM30 16C30 23.732 23.732 30 16 30C8.26801 30 2 23.732 2 16C2 8.26801 8.26801 2 16 2C23.732 2 30 8.26801 30 16ZM16 24C20.4183 24 24 20.4183 24 16C24 11.5817 20.4183 8 16 8C11.5817 8 8 11.5817 8 16C8 20.4183 11.5817 24 16 24Z" fill="#FAF5E9"/>
<path d="M16 30C23.732 30 30 23.732 30 16H27.2C27.2 22.1856 22.1856 27.2 16 27.2V30ZM2 16C2 23.732 8.26801 30 16 30V27.2C9.81441 27.2 4.8 22.1856 4.8 16H2ZM16 2C8.26801 2 2 8.26801 2 16H4.8C4.8 9.81441 9.81441 4.8 16 4.8V2ZM30 16C30 8.26801 23.732 2 16 2V4.8C22.1856 4.8 27.2 9.81441 27.2 16H30ZM16 31.4C24.5052 31.4 31.4 24.5052 31.4 16H28.6C28.6 22.9588 22.9588 28.6 16 28.6V31.4ZM0.6 16C0.6 24.5052 7.49481 31.4 16 31.4V28.6C9.04121 28.6 3.4 22.9588 3.4 16H0.6ZM16 0.6C7.49481 0.6 0.6 7.49481 0.6 16H3.4C3.4 9.04121 9.04121 3.4 16 3.4V0.6ZM31.4 16C31.4 7.49481 24.5052 0.6 16 0.6V3.4C22.9588 3.4 28.6 9.04121 28.6 16H31.4ZM22.6 16C22.6 19.6451 19.6451 22.6 16 22.6V25.4C21.1915 25.4 25.4 21.1915 25.4 16H22.6ZM16 9.4C19.6451 9.4 22.6 12.3549 22.6 16H25.4C25.4 10.8085 21.1915 6.6 16 6.6V9.4ZM9.4 16C9.4 12.3549 12.3549 9.4 16 9.4V6.6C10.8085 6.6 6.6 10.8085 6.6 16H9.4ZM16 22.6C12.3549 22.6 9.4 19.6451 9.4 16H6.6C6.6 21.1915 10.8085 25.4 16 25.4V22.6Z" fill="#FAF5E9" mask="url(#path-1-inside-1_11552_74697)"/>
</svg>
