<svg width="24" height="24" viewBox="0 0 24 24" fill="none" xmlns="http://www.w3.org/2000/svg">
<path fill-rule="evenodd" clip-rule="evenodd" d="M9.75585 24H14.0066C15.9469 24 17.6074 22.6075 17.9454 20.6968L20.7247 4.98657C20.7654 4.75641 20.7884 4.52398 20.7444 4.29443C20.5379 3.21773 19.3043 0 11.9325 0C4.65593 0 3.29057 3.13512 3.03504 4.25164C2.97629 4.50831 2.99951 4.77126 3.04538 5.03054L5.81701 20.6968C6.15504 22.6075 7.81554 24 9.75585 24ZM11.9261 6.9519C4.82464 6.9519 4.90256 4.64297 4.90256 4.64297C4.90256 4.64297 4.98376 1.93862 11.9261 1.93862C18.8685 1.93862 18.8693 4.64297 18.8693 4.64297C18.8693 4.64297 19.0276 6.9519 11.9261 6.9519Z" fill="#FAF5E9"/>
</svg>
