<svg width="16" height="16" viewBox="0 0 16 16" fill="none" xmlns="http://www.w3.org/2000/svg">
<g clip-path="url(#clip0_11285_191449)">
<path fill-rule="evenodd" clip-rule="evenodd" d="M7.16984 6.17989C6.73249 6.37969 6.37969 6.73249 6.17989 7.16984L1.84817 2.83812L2.83812 1.84817L7.16984 6.17989ZM7.3 6.12592C7.51787 6.04451 7.75374 6 8 6C8.24626 6 8.48213 6.04451 8.7 6.12592V0H7.3V6.12592ZM8.83016 6.17989C9.26751 6.37969 9.62031 6.73249 9.82011 7.16984L14.1518 2.83812L13.1619 1.84817L8.83016 6.17989ZM9.87408 7.3C9.95549 7.51787 10 7.75374 10 8C10 8.24626 9.95549 8.48213 9.87408 8.7H16V7.3H9.87408ZM9.82011 8.83016C9.62031 9.26751 9.26751 9.62031 8.83016 9.82011L13.1619 14.1518L14.1518 13.1619L9.82011 8.83016ZM8.7 9.87408C8.48213 9.95549 8.24626 10 8 10C7.75374 10 7.51787 9.95549 7.3 9.87408V16H8.7V9.87408ZM7.16984 9.82011C6.73249 9.62031 6.37969 9.26751 6.17989 8.83016L1.84817 13.1619L2.83812 14.1518L7.16984 9.82011ZM6.12592 8.7C6.04451 8.48213 6 8.24626 6 8C6 7.75374 6.04451 7.51787 6.12592 7.3H0V8.7H6.12592Z" fill="#FAF5E9"/>
</g>
<defs>
<clipPath id="clip0_11285_191449">
<rect width="16" height="16" fill="white"/>
</clipPath>
</defs>
</svg>
