<svg width="48" height="48" viewBox="0 0 48 48" fill="none" xmlns="http://www.w3.org/2000/svg">
<path fill-rule="evenodd" clip-rule="evenodd" d="M0.959961 22.08C0.959961 13.5969 7.83687 6.71997 16.32 6.71997H23.04H31.68C40.1631 6.71997 47.04 13.5969 47.04 22.08C47.04 30.5631 40.1631 37.44 31.68 37.44H28.3082C26.7411 37.44 25.1991 37.8332 23.8233 38.5836L15.36 43.2L17.28 37.44H16.3199C7.83686 37.44 0.959961 30.5631 0.959961 22.08ZM13.9084 30.3283C15.4521 30.3283 17.0419 29.6832 18.0326 28.7155L17.3644 27.6326C16.4889 28.416 15.383 28.8998 13.9776 28.8998C11.0976 28.8998 9.18524 26.3424 9.18524 21.9187C9.18524 17.2646 11.1206 14.4077 13.9315 14.4077C16.4659 14.4077 18.1248 16.7808 18.1248 20.8358C18.1248 23.3241 17.7331 25.0061 16.7193 25.0061C16.2355 25.0061 16.0972 24.5913 16.1433 23.6467L16.5811 17.3337H15.2908L15.2217 18.3245C14.9452 17.6793 14.4153 17.0803 13.5859 17.0803C12.0192 17.0803 10.6368 18.9696 10.6368 22.08C10.6368 24.7987 11.7196 26.3193 13.102 26.3193C13.9545 26.3193 14.6688 25.8355 15.1296 24.8909C15.3139 25.8816 15.9129 26.3193 16.6963 26.3193C18.4012 26.3193 19.5993 24.1536 19.5993 20.8358C19.5993 15.9513 17.3414 12.9331 13.8854 12.9331C10.176 12.9331 7.6646 16.4582 7.6646 21.8957C7.6646 27.1949 10.1529 30.3283 13.9084 30.3283ZM12.1113 22.0569C12.1113 19.8912 12.6873 18.4166 13.7241 18.4166C14.4614 18.4166 14.9683 19.4073 14.9683 21.3657C14.9683 23.5545 14.4153 25.0291 13.3785 25.0291C12.6182 25.0291 12.1113 24.0153 12.1113 22.0569ZM21.12 29.5H39.36V28.1L21.12 28.1V29.5Z" fill="#FAF5E9"/>
</svg>
