<svg width="32" height="32" viewBox="0 0 32 32" fill="none" xmlns="http://www.w3.org/2000/svg">
<path d="M29.3 16C29.3 23.3454 23.3454 29.3 16 29.3C15.2439 29.3 14.503 29.237 13.7822 29.116C7.49262 28.0607 2.7 22.5894 2.7 16C2.7 9.02856 8.06425 3.30928 14.8898 2.74564C15.2557 2.71542 15.626 2.7 16 2.7C23.3454 2.7 29.3 8.65461 29.3 16Z" stroke="#FAF5E9" stroke-width="1.4"/>
<path d="M2.27502 15.4619C2.27502 15.4619 3.2689 18.3702 11.0661 19.5107C10.6014 13.4084 11.2141 6.31108 15.1162 2C7.92561 2.57253 2.27502 8.38096 2.27502 15.4619Z" fill="#FAF5E9"/>
</svg>
