<svg width="66" height="70" viewBox="0 0 66 70" fill="none" xmlns="http://www.w3.org/2000/svg">
<g filter="url(#filter0_d_12433_79984)">
<path fill-rule="evenodd" clip-rule="evenodd" d="M36.296 20.5229L30.3188 20L30.1446 21.9913L21.1744 21.2065C20.6242 21.1584 20.1392 21.5654 20.0911 22.1156L20.0039 23.1118L45.905 25.3778L45.9921 24.3816C46.0403 23.8314 45.6333 23.3464 45.0831 23.2983L36.1217 22.5142L36.296 20.5229Z" fill="#FAF5E9"/>
<path fill-rule="evenodd" clip-rule="evenodd" d="M27.8598 49.1367H38.1443C39.6825 49.1367 40.9714 47.9734 41.1286 46.4433L43.1329 26.9375H22.8711L24.8756 46.4433C25.0328 47.9734 26.3217 49.1367 27.8598 49.1367ZM37.0051 28.9375H29.0051V30.9375H37.0051V28.9375Z" fill="#FAF5E9"/>
</g>
<defs>
<filter id="filter0_d_12433_79984" x="-3" y="-2" width="72" height="72" filterUnits="userSpaceOnUse" color-interpolation-filters="sRGB">
<feFlood flood-opacity="0" result="BackgroundImageFix"/>
<feColorMatrix in="SourceAlpha" type="matrix" values="0 0 0 0 0 0 0 0 0 0 0 0 0 0 0 0 0 0 127 0" result="hardAlpha"/>
<feOffset/>
<feGaussianBlur stdDeviation="10"/>
<feComposite in2="hardAlpha" operator="out"/>
<feColorMatrix type="matrix" values="0 0 0 0 0 0 0 0 0 0 0 0 0 0 0 0 0 0 0.2 0"/>
<feBlend mode="normal" in2="BackgroundImageFix" result="effect1_dropShadow_12433_79984"/>
<feBlend mode="normal" in="SourceGraphic" in2="effect1_dropShadow_12433_79984" result="shape"/>
</filter>
</defs>
</svg>
