<svg width="64" height="64" viewBox="0 0 64 64" fill="none" xmlns="http://www.w3.org/2000/svg">
<path fill-rule="evenodd" clip-rule="evenodd" d="M32 64C49.6731 64 64 49.6731 64 32C64 14.3269 49.6731 0 32 0C14.3269 0 0 14.3269 0 32C0 49.6731 14.3269 64 32 64ZM28.1911 40.0001H26.2711V23.2001H29.2951L31.5031 31.4561C31.6198 31.9229 31.7481 32.3781 31.8799 32.8459C31.9379 33.0515 31.9965 33.2596 32.0551 33.4721C32.2231 32.8001 32.3911 32.1521 32.5831 31.4561L34.7431 23.2001H37.7191V40.0001H35.7991L35.8951 27.9521C35.8951 26.9201 35.8951 25.9601 35.9191 25.2881L33.1591 35.9201H30.8551L28.0471 25.3121C28.0951 26.2721 28.0951 26.9201 28.0951 27.8081L28.1911 40.0001ZM44.0049 20.9H20V19.1H44.0049V20.9ZM20 43.9H44.0049V42.1H20V43.9Z" fill="#FAF5E9"/>
</svg>
