<svg width="48" height="48" viewBox="0 0 48 48" fill="none" xmlns="http://www.w3.org/2000/svg">
<path d="M8.68068 30.8168L20.4393 44.9271C22.0618 46.8742 24.4655 48 27 48H28.5H29.2476C30.7255 48 32.1799 47.6292 33.4774 46.9214C35.7157 45.7005 37.3173 43.5719 37.8704 41.083L39.7614 32.5735C39.92 31.86 40 31.1313 40 30.4003C40 28.3876 38.6658 26.6188 36.7305 26.0659L22.5 22V10.2426C22.5 9.44699 22.1839 8.68393 21.6213 8.12132C20.4497 6.94975 18.5503 6.94975 17.3787 8.12132C16.8161 8.68393 16.5 9.44699 16.5 10.2426V31L12.8245 26.9161C12.2997 26.333 11.552 26 10.7675 26C9.23904 26 8 27.239 8 28.7675V28.9368C8 29.6238 8.24086 30.289 8.68068 30.8168Z" fill="#FAF5E9"/>
<path d="M30 12C30 5.92487 25.299 1 19.5 1C13.701 1 9 5.92487 9 12" stroke="#FAF5E9" stroke-width="1.4"/>
</svg>
